<?xml version="1.0" encoding="UTF-8" standalone="no"?>
<svg
 xmlns:dc="http://purl.org/dc/elements/1.1/"
 xmlns:cc="http://creativecommons.org/ns#"
 xmlns:rdf="http://www.w3.org/1999/02/22-rdf-syntax-ns#"
 xmlns:svg="http://www.w3.org/2000/svg"
 xmlns="http://www.w3.org/2000/svg"
 xmlns:sodipodi="http://sodipodi.sourceforge.net/DTD/sodipodi-0.dtd"
 xmlns:inkscape="http://www.inkscape.org/namespaces/inkscape"
 width="268"
 height="37"
 viewBox="0 0 268 37"
 version="1.1"
 id="svg4606"
 sodipodi:docname="powered-by-akash.svg"
 style="fill:none"
 inkscape:version="0.92.3 (2405546, 2018-03-11)">
<metadata
 id="metadata4610">
<rdf:RDF>
<cc:Work
 rdf:about="">
<dc:format>image/svg+xml</dc:format>
<dc:type
 rdf:resource="http://purl.org/dc/dcmitype/StillImage" />
<dc:title></dc:title>
</cc:Work>
</rdf:RDF>
</metadata>
<sodipodi:namedview
 pagecolor="#ffffff"
 bordercolor="#666666"
 borderopacity="1"
 objecttolerance="10"
 gridtolerance="10"
 guidetolerance="10"
 inkscape:pageopacity="0"
 inkscape:pageshadow="2"
 inkscape:window-width="1920"
 inkscape:window-height="1017"
 id="namedview4608"
 showgrid="false"
 inkscape:zoom="4.18"
 inkscape:cx="151.07656"
 inkscape:cy="52"
 inkscape:window-x="-8"
 inkscape:window-y="-8"
 inkscape:window-maximized="1"
 inkscape:current-layer="svg4606" />
<defs
 id="defs4604">
<clipPath
 id="clip0">
<rect
 width="141.474"
 height="32"
 transform="translate(138.588,36)"
 id="rect4601"
 x="0"
 y="0"
 style="fill:#ffffff" />
</clipPath>
</defs>
<path
 d="M 2.7320574,23.029089 H 4.2198574 V 17.941389 H 7.3422574 C 9.6014575,17.941389 11.272857,16.343389 11.272857,14.029089 C 11.272857,11.696489 9.6749575,10.171989 7.3422574,10.171989 H 2.7320574 Z M 4.2198574,16.618889 V 11.494389 H 7.2136574 C 8.7565575,11.494389 9.7483575,12.559689 9.7483575,14.029089 C 9.7483575,15.516889 8.7565575,16.618889 7.2136574,16.618889 Z"
 id="path4565"
 inkscape:connector-curvature="0"
 style="fill:#1e1f21" />
<path
 d="M 17.553357,23.267889 C 20.418657,23.267889 22.549257,21.118889 22.549257,18.253589 C 22.549257,15.388289 20.455357,13.239289 17.571757,13.239289 C 14.724757,13.239289 12.575757,15.369889 12.575757,18.253589 C 12.575757,21.155589 14.688057,23.267889 17.553357,23.267889 Z M 17.553357,21.945389 C 15.514557,21.945389 14.063557,20.402589 14.063557,18.253589 C 14.063557,16.159689 15.496257,14.561789 17.553357,14.561789 C 19.610457,14.561789 21.061557,16.141389 21.061557,18.253589 C 21.061557,20.384189 19.610457,21.945389 17.553357,21.945389 Z"
 id="path4567"
 inkscape:connector-curvature="0"
 style="fill:#1e1f21" />
<path
 d="M 26.717357,23.029089 H 28.590857 L 31.052057,15.278089 H 31.162257 L 33.605157,23.029089 H 35.478557 L 38.472457,13.478089 H 36.892857 L 34.560257,21.375989 H 34.450057 L 31.933657,13.478089 H 30.280657 L 27.745957,21.375989 H 27.635757 L 25.321457,13.478089 H 23.741857 Z"
 id="path4569"
 inkscape:connector-curvature="0"
 style="fill:#1e1f21" />
<path
 d="M 44.364257,23.267889 C 46.605057,23.267889 48.276457,22.000489 48.809157,20.218889 H 47.303057 C 46.862157,21.339289 45.649957,21.945389 44.382557,21.945389 C 42.417257,21.945389 41.186657,20.678089 41.113257,18.767889 H 48.900957 V 18.124989 C 48.900957,15.369889 47.174457,13.239289 44.272357,13.239289 C 41.664257,13.239289 39.588757,15.204589 39.588757,18.253589 C 39.588757,21.118889 41.443857,23.267889 44.364257,23.267889 Z M 41.149957,17.482189 C 41.296857,15.718889 42.674457,14.561789 44.272357,14.561789 C 45.888757,14.561789 47.229557,15.571989 47.358157,17.482189 Z"
 id="path4571"
 inkscape:connector-curvature="0"
 style="fill:#1e1f21" />
<path
 d="M 51.480157,23.029089 H 52.931157 V 18.106689 C 52.931157,16.288289 53.904657,14.929089 55.649557,14.929089 H 56.439357 V 13.478089 H 55.631157 C 54.235257,13.478089 53.298557,14.451589 53.022957,15.259689 H 52.912757 V 13.478089 H 51.480157 Z"
 id="path4573"
 inkscape:connector-curvature="0"
 style="fill:#1e1f21" />
<path
 d="M 62.516357,23.267889 C 64.757157,23.267889 66.428557,22.000489 66.961257,20.218889 H 65.455157 C 65.014257,21.339289 63.802057,21.945389 62.534657,21.945389 C 60.569357,21.945389 59.338757,20.678089 59.265357,18.767889 H 67.053057 V 18.124989 C 67.053057,15.369889 65.326557,13.239289 62.424457,13.239289 C 59.816357,13.239289 57.740857,15.204589 57.740857,18.253589 C 57.740857,21.118889 59.595957,23.267889 62.516357,23.267889 Z M 59.302057,17.482189 C 59.448957,15.718889 60.826557,14.561789 62.424457,14.561789 C 64.040857,14.561789 65.381657,15.571989 65.510257,17.482189 Z"
 id="path4575"
 inkscape:connector-curvature="0"
 style="fill:#1e1f21" />
<path
 d="M 73.654657,23.267889 C 75.730157,23.267889 76.722057,21.871989 76.960857,21.522989 H 77.071057 V 23.029089 H 78.466957 V 9.2535892 H 77.015957 V 15.020889 H 76.905757 C 76.611857,14.524989 75.546557,13.239289 73.544457,13.239289 C 70.844457,13.239289 68.897557,15.333189 68.897557,18.271989 C 68.897557,21.192389 70.844457,23.267889 73.654657,23.267889 Z M 73.746557,21.963789 C 71.744457,21.963789 70.385357,20.512789 70.385357,18.271989 C 70.385357,16.104589 71.744457,14.561789 73.709757,14.561789 C 75.601657,14.561789 77.071057,15.920889 77.071057,18.271989 C 77.071057,20.273989 75.822057,21.963789 73.746557,21.963789 Z"
 id="path4577"
 inkscape:connector-curvature="0"
 style="fill:#1e1f21" />
<path
 d="M 91.556057,23.267889 C 94.366057,23.267889 96.313057,21.192389 96.313057,18.271989 C 96.313057,15.333189 94.366057,13.239289 91.666057,13.239289 C 89.664057,13.239289 88.599057,14.524989 88.305057,15.020889 H 88.195057 V 9.2535892 H 86.744057 V 23.029089 H 88.140057 V 21.522989 H 88.250057 C 88.489057,21.871989 89.481057,23.267889 91.556057,23.267889 Z M 91.464057,21.963789 C 89.389057,21.963789 88.140057,20.273989 88.140057,18.271989 C 88.140057,15.920889 89.609057,14.561789 91.501057,14.561789 C 93.466057,14.561789 94.826057,16.104589 94.826057,18.271989 C 94.826057,20.512789 93.466057,21.963789 91.464057,21.963789 Z"
 id="path4579"
 inkscape:connector-curvature="0"
 style="fill:#1e1f21" />
<path
 d="M 98.453055,27.253589 H 99.445055 C 101.00605,27.253589 101.75905,26.518889 102.25505,25.214789 L 106.81005,13.478089 H 105.17505 L 102.20005,21.559689 H 102.09005 L 99.132055,13.478089 H 97.516057 L 101.39205,23.543389 L 100.95105,24.700489 C 100.63905,25.527089 100.10606,25.931189 99.169055,25.931189 H 98.453055 Z"
 id="path4581"
 inkscape:connector-curvature="0"
 style="fill:#1e1f21" />
<g
 clip-path="url(#clip0)"
 id="g4599"
 transform="translate(-16.267943,-33.746411)">
<path
 d="M 209.901,50.3427 L 214.026,44.2354 H 220.748 L 214.781,53.0587 L 220.936,62.2911 H 214.218 L 209.901,55.7845 V 62.2911 H 204.324 V 36.4374 H 209.901 Z"
 id="path4583"
 inkscape:connector-curvature="0"
 style="fill:#1e1f21" />
<path
 d="M 279.731,49.8498 V 62.2862 H 274.159 V 49.9829 C 274.159,48.7308 273.132,47.7056 271.877,47.7056 C 270.613,47.7056 269.59,48.7308 269.59,49.9829 V 62.2862 H 264.018 V 36.4374 H 269.59 V 44.8072 C 270.657,44.0136 271.976,43.5404 273.404,43.5404 C 276.901,43.5354 279.731,46.3599 279.731,49.8498 Z"
 id="path4585"
 inkscape:connector-curvature="0"
 style="fill:#1e1f21" />
<path
 d="M 195.645,44.236 V 45.1282 C 194.133,44.1522 192.33,43.5804 190.394,43.5804 C 185.04,43.5804 180.698,47.9132 180.698,53.2565 C 180.698,58.5998 185.04,62.9325 190.399,62.9325 C 192.335,62.9325 194.133,62.3607 195.65,61.3848 V 62.3262 H 201.222 V 44.236 Z M 191.209,57.9688 C 188.483,57.9688 186.27,55.7605 186.27,53.0396 C 186.27,50.3187 188.483,48.1104 191.209,48.1104 C 193.936,48.1104 196.149,50.3187 196.149,53.0396 C 196.149,55.7605 193.941,57.9688 191.209,57.9688 Z"
 id="path4587"
 inkscape:connector-curvature="0"
 style="fill:#1e1f21" />
<path
 d="M 235.883,44.236 V 45.1282 C 234.371,44.1522 232.569,43.5804 230.632,43.5804 C 225.278,43.5804 220.936,47.9132 220.936,53.2565 C 220.936,58.5998 225.278,62.9325 230.632,62.9325 C 232.569,62.9325 234.367,62.3607 235.883,61.3848 V 62.3262 H 241.455 V 44.236 Z M 231.447,57.9688 C 228.721,57.9688 226.508,55.7605 226.508,53.0396 C 226.508,50.3187 228.721,48.1104 231.447,48.1104 C 234.174,48.1104 236.387,50.3187 236.387,53.0396 C 236.387,55.7605 234.174,57.9688 231.447,57.9688 Z"
 id="path4589"
 inkscape:connector-curvature="0"
 style="fill:#1e1f21" />
<path
 d="M 249.585,56.4459 C 249.61,56.8156 249.708,57.131 249.876,57.3824 C 250.054,57.6486 250.286,57.8655 250.563,58.0331 C 250.864,58.2105 251.215,58.3436 251.615,58.4274 C 252.035,58.5161 252.47,58.5605 252.919,58.5605 C 253.922,58.5605 254.678,58.4077 255.167,58.1119 C 255.577,57.8605 255.759,57.5894 255.759,57.2345 C 255.759,57.0719 255.725,56.9388 255.656,56.8254 C 255.616,56.7613 255.507,56.6282 255.206,56.4606 C 254.925,56.3029 254.539,56.155 254.055,56.017 C 253.546,55.8741 252.884,55.7213 252.084,55.5734 C 251.027,55.3614 250.044,55.0953 249.16,54.7749 C 248.256,54.4495 247.471,54.0453 246.819,53.5771 C 246.147,53.0891 245.608,52.5173 245.228,51.8765 C 244.833,51.211 244.63,50.4421 244.63,49.5844 C 244.63,48.7661 244.828,47.9676 245.218,47.2233 C 245.608,46.4839 246.167,45.8333 246.883,45.2861 C 247.584,44.7488 248.449,44.3151 249.447,44.0045 C 250.434,43.694 251.561,43.5363 252.791,43.5363 C 254.07,43.5363 255.241,43.6891 256.268,43.9897 C 257.31,44.2954 258.209,44.7291 258.945,45.2713 C 259.696,45.8283 260.279,46.5036 260.679,47.2726 C 261.079,48.0465 261.282,48.8992 261.282,49.8062 H 255.552 C 255.552,49.2985 255.354,48.8992 254.934,48.5443 C 254.49,48.1746 253.769,47.9923 252.786,47.9923 C 251.862,47.9923 251.175,48.1451 250.741,48.4507 C 250.36,48.7169 250.187,49.0077 250.187,49.3626 C 250.187,49.5302 250.222,49.683 250.291,49.8259 C 250.35,49.9492 250.474,50.0724 250.657,50.1907 C 250.884,50.3386 251.215,50.4815 251.64,50.6097 C 252.089,50.7477 252.677,50.8709 253.378,50.9695 C 254.47,51.147 255.497,51.3786 256.431,51.6547 C 257.394,51.9406 258.244,52.3201 258.95,52.7736 C 259.686,53.2517 260.274,53.8383 260.694,54.5235 C 261.124,55.2283 261.346,56.0712 261.346,57.0226 C 261.346,57.9049 261.129,58.7281 260.704,59.4724 C 260.284,60.2069 259.686,60.8427 258.926,61.3701 C 258.185,61.8828 257.281,62.287 256.238,62.5679 C 255.211,62.844 254.06,62.9869 252.805,62.9869 C 251.417,62.9869 250.173,62.7996 249.096,62.4349 C 248.019,62.0652 247.095,61.5772 246.359,60.9758 C 245.608,60.3646 245.035,59.6597 244.645,58.876 C 244.255,58.0873 244.052,57.2789 244.052,56.4705 Z"
 id="path4591"
 inkscape:connector-curvature="0"
 style="fill:#1e1f21" />
<path
 d="M 168.719,67.5309 L 174.706,57.1697 L 162.722,36.4424 H 150.739 Z"
 id="path4593"
 inkscape:connector-curvature="0"
 style="fill:#e30613" />
<path
 d="M 162.727,57.1704 L 168.714,67.5316 H 156.735 L 150.739,57.1704 Z"
 id="path4595"
 inkscape:connector-curvature="0"
 style="fill:#af1917" />
<path
 d="M 144.747,46.804 H 156.73 L 144.752,67.5313 L 138.755,57.1701 Z"
 id="path4597"
 inkscape:connector-curvature="0"
 style="fill:#e30613" />
</g>
</svg>
