<?xml version="1.0" standalone="no"?>
<!DOCTYPE svg PUBLIC "-//W3C//DTD SVG 20010904//EN"
 "http://www.w3.org/TR/2001/REC-SVG-20010904/DTD/svg10.dtd">
<svg version="1.0" xmlns="http://www.w3.org/2000/svg"
 width="260.000000pt" height="260.000000pt" viewBox="0 0 260.000000 260.000000"
 preserveAspectRatio="xMidYMid meet">
<metadata>
Created by potrace 1.14, written by Peter Selinger 2001-2017
</metadata>
<g transform="translate(0.000000,260.000000) scale(0.100000,-0.100000)"
fill="#000000" stroke="none">
<path d="M691 2388 c-62 -17 -130 -110 -284 -392 l-29 -52 123 -204 c68 -113
128 -210 134 -216 6 -7 33 -44 60 -83 27 -39 52 -71 56 -71 13 0 47 56 211
345 13 22 25 42 28 45 3 3 11 16 19 30 8 14 39 68 70 120 57 100 58 102 45
215 -3 28 -7 68 -9 90 -7 87 -18 170 -22 175 -7 8 -369 6 -402 -2z"/>
<path d="M1500 2380 c-4 -8 -11 -46 -15 -85 -4 -38 -8 -77 -10 -85 -1 -8 -6
-46 -10 -83 -3 -37 -8 -77 -10 -89 -4 -18 59 -133 195 -358 15 -25 46 -79 70
-120 24 -41 61 -103 82 -137 21 -34 38 -65 38 -68 0 -3 11 -24 26 -46 14 -22
33 -55 43 -72 10 -18 55 -94 100 -171 44 -76 81 -141 81 -144 0 -3 7 -13 16
-23 15 -16 18 -16 62 1 26 10 76 29 112 43 64 24 66 25 122 118 129 211 140
233 135 293 -3 38 -14 70 -36 106 -17 27 -31 52 -31 55 0 2 -17 32 -39 67 -41
68 -167 281 -198 338 -85 150 -247 416 -261 427 -56 44 -71 47 -270 48 -165 1
-195 -1 -202 -15z"/>
<path d="M150 1559 c-133 -229 -135 -204 49 -510 l141 -237 93 -23 c78 -19
120 -23 274 -23 127 -1 184 2 187 10 4 10 -23 61 -74 144 -67 110 -219 361
-230 381 -47 84 -114 189 -143 220 -17 20 -65 72 -106 117 -41 45 -79 82 -85
82 -7 0 -54 -73 -106 -161z"/>
<path d="M496 586 c-11 -9 -4 -27 38 -96 133 -222 139 -230 187 -254 l46 -23
534 2 c580 1 562 -1 616 57 42 45 191 303 182 313 -14 15 -1585 16 -1603 1z"/>
</g>
</svg>
